<svg width="2692" height="2589" viewBox="0 0 2692 2589" fill="none" xmlns="http://www.w3.org/2000/svg">
<g opacity="0.05">
<path d="M847.75 1791.93C791.388 1815.54 769.981 1873.4 806.819 1906.44C882.61 1974.42 1194.63 1940.84 1209.31 1894.76C1223.77 1849.36 965.359 1742.66 847.75 1791.93Z" stroke="#002B5B" stroke-width="4.77712" stroke-miterlimit="10"/>
<path d="M987.408 1640.73C1116.15 1595.63 1332.32 1916.79 1243.09 1992.62C1188.23 2039.24 1055.42 2033.42 947.118 2018.09C845.444 2003.71 700.165 1944.9 664.323 1847.23C645.345 1795.38 656.737 1721.51 696.932 1695.64C728.039 1675.62 770.035 1684.63 779.299 1681.3C823.464 1699.63 829.945 1706.75 865.132 1711.05C911.125 1716.67 952.002 1653.14 987.408 1640.73Z" stroke="#002B5B" stroke-width="4.77712" stroke-miterlimit="10"/>
<path d="M1118.03 1482.77C1267.56 1506.65 1430.04 1975.75 1267.84 2083.71C1164.54 2152.47 984.461 2122.11 858.938 2085.76C743.634 2052.37 551.639 1940.95 512.795 1781.26C490.215 1688.48 517.652 1557.95 596.268 1520.2C658.934 1490.11 739.678 1515.98 753.894 1517.97C837.926 1563.19 844.721 1586.2 907.291 1601.68C990.137 1622.16 1055.54 1472.74 1118.03 1482.77Z" stroke="#002B5B" stroke-width="4.77712" stroke-miterlimit="10"/>
<path d="M1239.19 1325.86C1404.28 1369.87 1518.29 2035.38 1283.12 2175.84C1131.35 2266.48 903.935 2212.11 761.289 2154.46C632.247 2102.32 394.34 1938.26 351.799 1716.33C326.135 1582.49 368.963 1395.59 486.122 1345.79C580.264 1305.76 700.493 1346.84 718.994 1355.68C848.337 1417.53 849.974 1466.68 940.023 1493.36C1059.64 1528.89 1152.73 1302.85 1239.19 1325.86Z" stroke="#002B5B" stroke-width="4.77712" stroke-miterlimit="10"/>
<path d="M1353.06 1176.08C1535.89 1239.58 1598.95 2101.48 1291.12 2275.12C1090.66 2387.18 816.015 2309.39 656.369 2230.32C513.436 2159.55 229.919 1942.86 183.462 1658.53C154.905 1483.75 212.932 1240.43 368.649 1178.49C494.322 1128.55 653.081 1187.13 676.78 1200.49C843.507 1294.47 847.818 1354.51 965.318 1392.18C1121.73 1442.76 1243.62 1138.08 1353.06 1176.08Z" stroke="#002B5B" stroke-width="4.77712" stroke-miterlimit="10"/>
<path d="M246.059 1013.19C403.208 953.354 600.402 1029.34 629.45 1047.3C833.11 1173.21 840.642 1243.88 985.552 1292.9C1178.79 1358.28 1330.21 974.163 1461.72 1028.2C1663.73 1111.2 1675.07 2170.59 1293.9 2376.29C1045.19 2510.52 722.773 2408.67 546.223 2308.07C389.428 2218.74 60.504 1949.42 10.022 1602.64C-21.3587 1386.94 51.7583 1087.15 246.059 1013.19Z" stroke="#002B5B" stroke-width="4.77712" stroke-miterlimit="10"/>
<path d="M1946.57 904.029C1884.66 903.51 1810.43 796.14 1865.94 778.211C1898.01 767.841 1982.9 784.242 2016.24 813.428C2063.21 854.499 1989.16 904.397 1946.57 904.029Z" stroke="#002B5B" stroke-width="4.77712" stroke-miterlimit="10"/>
<path d="M1778.34 793.247C1784.4 778.838 1812.76 772.439 1838.64 754.892C1891.14 719.279 1898.68 702.36 1935.96 680.883C1950.51 672.491 1970.07 661.466 1989.17 666.515C2018.43 674.252 2025.73 707.736 2062.85 766.708C2110.99 843.337 2129.21 863.149 2115.46 903.756C2112.26 913.198 2108.11 943.776 2084.93 962.428C2052.82 988.217 2015.19 968.295 1968.15 985.365C1911.65 1005.83 1883.64 1042.26 1859.12 1026.16C1841.85 1014.82 1841.21 983.769 1828.27 929.694C1818.42 888.501 1812.23 861.471 1800.25 839.421C1785.88 813.169 1771.6 809.266 1778.34 793.247Z" stroke="#002B5B" stroke-width="4.77712" stroke-miterlimit="10"/>
<path d="M1683.72 823.279C1684.77 797.736 1724.88 785.374 1757.94 748.465C1825.74 672.751 1794.33 618.649 1848.67 563.334C1871.73 539.851 1907.91 517.105 1944.18 521.513C1995.64 527.775 2012.93 580.949 2092.16 688.756C2195.74 829.706 2239.87 857.309 2230.19 932.423C2228.21 947.733 2226.29 1006.51 2185.81 1041.9C2131.82 1089.08 2067.11 1046.15 1982.59 1081.61C1888.14 1121.18 1852.85 1205.78 1821 1188.28C1798.89 1176.12 1807.36 1127.16 1790.36 1031.68C1778.32 963.806 1770.89 924.141 1746.83 891.653C1716.48 850.678 1682.59 851.019 1683.72 823.279Z" stroke="#002B5B" stroke-width="4.77712" stroke-miterlimit="10"/>
<path d="M1589 852.984C1584.91 816.375 1636.85 797.968 1677.14 741.697C1760.1 625.854 1688.58 535.307 1761.28 445.443C1792.4 406.992 1845.78 372.594 1899.08 376.183C1972.97 381.149 2000.27 453.603 2121.48 610.476C2280.84 815.447 2349.47 851.537 2344.96 960.764C2344.08 982.063 2344.49 1068.9 2286.73 1121.08C2210.85 1189.61 2118.91 1123.6 1997.07 1177.56C1864.59 1236.24 1822.13 1368.96 1782.87 1350.1C1755.92 1337.06 1773.18 1270.25 1752.43 1133.36C1738.1 1038.81 1729.47 986.702 1693.39 943.585C1646.89 888.024 1593.38 892.417 1589 852.984Z" stroke="#002B5B" stroke-width="4.77712" stroke-miterlimit="10"/>
<path d="M1494.07 882.607C1484.89 834.973 1548.51 810.453 1596.13 734.861C1694.06 578.82 1582.28 452.184 1673.69 327.484C1712.77 274.134 1783.47 228.069 1853.79 230.771C1950.14 234.482 1987.02 326.461 2150.53 532.128C2365.16 801.475 2458.56 845.957 2459.39 989.036C2459.56 1016.33 2462.26 1131.13 2387.3 1200.17C2289.42 1289.98 2170.45 1200.92 2011.21 1273.45C1840.66 1351.14 1791.04 1532.11 1744.51 1511.86C1712.72 1497.97 1738.78 1413.26 1714.28 1234.97C1697.62 1113.73 1687.84 1049.25 1639.74 995.449C1577.06 925.369 1503.95 933.829 1494.07 882.607Z" stroke="#002B5B" stroke-width="4.77712" stroke-miterlimit="10"/>
<path d="M1398.96 912.216C1414.34 975.254 1507.03 962.701 1585.88 1047.3C1646.01 1111.8 1656.94 1188.63 1675.93 1336.57C1704.13 1556.25 1669.31 1658.87 1705.94 1673.59C1759.8 1695.25 1816.57 1466.01 2025.21 1369.31C2221.76 1278.22 2368.02 1390.52 2487.73 1279.26C2580.02 1193.47 2574.89 1050.7 2573.69 1017.28C2567.33 840.39 2449.3 787.475 2179.38 453.753C1973.57 199.292 1927.15 87.8149 1808.27 85.3452C1720.95 83.5304 1632.88 141.289 1585.88 209.512C1475.81 369.155 1628.08 531.951 1514.93 728.012C1460.1 823.02 1384.65 853.571 1398.96 912.216Z" stroke="#002B5B" stroke-width="4.77712" stroke-miterlimit="10"/>
<path d="M2185.59 1926.84C2169.44 1918.65 2135.52 1934.42 2132.52 1959C2129.12 1986.87 2167.5 2009.93 2184.36 2002.77C2204.31 1994.28 2207.02 1937.67 2185.59 1926.84Z" stroke="#002B5B" stroke-width="4.77712" stroke-miterlimit="10"/>
<path d="M2231.11 2074.95C2258.64 2049.2 2270.67 2001.95 2284.44 1920.96C2298.08 1840.64 2295.94 1783.14 2283.95 1778.97C2277.41 1776.72 2258.9 1794.33 2243.02 1807.24C2213.29 1831.34 2162.4 1828.66 2149.35 1831.27C2101.6 1840.82 2087.57 1858.56 2067.61 1892.53C2058.38 1908.23 2036.83 1943.02 2027.35 1983.95C2012.89 2045.94 1948.07 2065.04 1955.97 2089.89C1962.61 2110.63 2026.83 2115.67 2068.47 2116.25C2128.15 2117.1 2188.54 2114.71 2231.11 2074.95Z" stroke="#002B5B" stroke-width="4.77712" stroke-miterlimit="10"/>
<path d="M2278.83 2144.17C2324.09 2098.16 2341.89 2020.95 2369.32 1876.54C2397.18 1731.44 2397 1631.92 2383.28 1628.21C2372.97 1625.37 2339.62 1661.24 2311.26 1686.88C2257.82 1735.42 2162.15 1727.43 2142.44 1730.54C2052.52 1744.43 2030.37 1777.71 1995.52 1840.62C1981 1866.81 1941.18 1930.67 1923.03 2006.09C1895.1 2121.62 1762.69 2151.87 1773.64 2194.7C1782.8 2230.36 1905.59 2235.84 1982.86 2232.9C2091.95 2228.66 2202.36 2221.95 2278.83 2144.17Z" stroke="#002B5B" stroke-width="4.77712" stroke-miterlimit="10"/>
<path d="M2326.3 2212.94C2389.32 2146.68 2412.69 2039.45 2453.92 1831.68C2495.8 1621.75 2497.75 1480.44 2482.33 1476.92C2468.21 1473.64 2420.03 1527.67 2379.29 1566.11C2302.27 1639.21 2161.7 1625.77 2135.3 1629.29C2003.26 1646.92 1972.84 1696.21 1923.21 1788.18C1903.4 1824.87 1845.31 1917.8 1818.48 2027.66C1777.12 2196.74 1577.11 2238.11 1591.09 2298.94C1602.77 2349.54 1784.16 2355.66 1897.02 2348.96C2055.51 2340.03 2216.1 2328.81 2326.3 2212.94Z" stroke="#002B5B" stroke-width="4.77712" stroke-miterlimit="10"/>
<path d="M2373.62 2281.67C2454.44 2195.16 2483.35 2057.9 2538.39 1786.76C2594.33 1512.04 2598.42 1328.97 2581.26 1325.57C2563.3 1321.98 2500.28 1393.96 2447.18 1445.22C2346.44 1542.71 2161.13 1523.95 2128.04 1527.97C1953.86 1549.11 1914.97 1614.55 1850.76 1735.67C1825.57 1782.83 1749.32 1904.87 1713.82 2049.18C1659 2271.8 1391.37 2324.31 1408.43 2403.13C1422.6 2468.63 1662.6 2475.16 1811.07 2464.99C2018.88 2450.97 2229.74 2435.68 2373.62 2281.67Z" stroke="#002B5B" stroke-width="4.77712" stroke-miterlimit="10"/>
<path d="M2120.71 1426.62C1904.42 1451.18 1857.39 1533.05 1778.26 1683.14C1747.83 1740.85 1653.25 1891.91 1609.07 2070.65C1540.85 2346.85 1205.59 2410.47 1225.68 2507.28C1242.38 2587.79 1540.96 2594.61 1725.05 2580.97C1982.26 2561.86 2243.36 2542.51 2420.88 2350.37C2519.51 2243.6 2553.95 2076.34 2622.81 1741.81C2692.7 1402.28 2698.94 1177.5 2680.11 1174.19C2658.28 1170.37 2580.51 1260.16 2515.02 1324.29C2390.53 1446.16 2160.5 1422.11 2120.71 1426.62Z" stroke="#002B5B" stroke-width="4.77712" stroke-miterlimit="10"/>
<path d="M362.032 770.31C386.59 864.459 562.868 820.236 772.709 1032.29C847.9 1108.28 898.314 1187.76 997.832 1200.12C1007.87 1201.36 1107.57 1212.26 1177.93 1148.27C1266.45 1067.77 1212.42 956.083 1315.73 800.329C1353.78 742.953 1360.11 759.613 1388.04 714.367C1507.24 521.226 1325.45 325.151 1430.34 129.008C1478.62 38.7211 1550.4 17.9948 1543.58 6.20575C1514.14 -44.3752 295.668 516.614 362.032 770.31Z" stroke="#002B5B" stroke-width="4.77712" stroke-miterlimit="10"/>
<path d="M1025.12 1071.41C1031.15 1070.59 1096.89 1075.5 1141.98 1030.26C1199 973.126 1158.35 894.464 1223.68 788.267C1247.72 749.161 1251.06 759.763 1268.17 728.831C1341.16 596.831 1210.16 464.041 1274.31 334.825C1304 275.007 1350.86 261.294 1343.89 255.454C1312.36 228.819 508.102 622.292 571.273 793.506C594.958 857.719 724.26 834.932 872.213 973.235C926.011 1023.49 962.44 1079.91 1025.12 1071.41Z" stroke="#002B5B" stroke-width="4.77712" stroke-miterlimit="10"/>
<path d="M1052.41 942.684C1054.13 938.359 1086.27 938.454 1106.03 912.243C1131.68 878.24 1104.36 832.94 1131.62 776.219C1141.62 755.397 1142.03 759.845 1148.31 743.294C1175.26 672.109 1094.76 603.012 1118.29 540.629C1129.3 511.265 1149.77 506.258 1144.31 504.689C1104.42 510.351 721.354 728.353 780.445 816.702C803.517 851.224 886.103 849.573 971.649 914.18C1004.16 938.741 1025.45 956.725 1052.41 942.684Z" stroke="#002B5B" stroke-width="4.77712" stroke-miterlimit="10"/>
<path d="M1079.69 813.974C1058.52 752.095 975.156 731.055 944.621 753.937C899.596 787.721 938.004 831.712 989.645 839.899C1028.24 845.97 1103.93 884.79 1079.69 813.974Z" stroke="#002B5B" stroke-width="4.77712" stroke-miterlimit="10"/>
</g>
</svg>
