<svg width="282" height="71" viewBox="0 0 282 71" fill="none" xmlns="http://www.w3.org/2000/svg">
<path fill-rule="evenodd" clip-rule="evenodd" d="M51.7389 3.95356C46.8623 1.42718 41.3244 0 35.4532 0C15.8729 0 0 15.8729 0 35.4532C0 55.0334 15.8729 70.9064 35.4532 70.9064C55.0334 70.9064 70.9064 55.0334 70.9064 35.4532C70.9064 30.6962 69.9695 26.158 68.2702 22.0131L42.194 48.0892L26.2699 48.455L19.5186 55.2063L16.4098 54.8701L24.5444 46.7354L24.9102 30.8113L51.7389 3.95356ZM54.9079 5.80991C59.79 9.02051 63.8316 13.4047 66.6312 18.5612L63.4715 21.721L57.3366 15.5861L54.7411 18.1817L60.8759 24.3166L55.9326 29.254L43.6983 17.0196L54.9079 5.80991Z" fill="#2B4865"/>
<path d="M97.0313 6.90909H102.531L108.339 21.0795H108.586L114.394 6.90909H119.894V28H115.568V14.2724H115.393L109.935 27.897H106.99L101.532 14.2209H101.357V28H97.0313V6.90909ZM133.629 21.2649V12.1818H138.016V28H133.804V25.1268H133.639C133.282 26.0536 132.688 26.7985 131.858 27.3615C131.034 27.9245 130.028 28.206 128.84 28.206C127.783 28.206 126.853 27.9657 126.049 27.4851C125.246 27.0045 124.618 26.3214 124.165 25.4357C123.719 24.5501 123.492 23.4893 123.485 22.2536V12.1818H127.872V21.4709C127.879 22.4046 128.13 23.1426 128.624 23.685C129.118 24.2274 129.781 24.4986 130.612 24.4986C131.14 24.4986 131.634 24.3784 132.094 24.1381C132.554 23.891 132.925 23.5271 133.207 23.0465C133.495 22.5659 133.636 21.9721 133.629 21.2649ZM145.912 18.8551V28H141.525V12.1818H145.706V14.9727H145.892C146.242 14.0527 146.829 13.3249 147.653 12.7894C148.476 12.247 149.475 11.9759 150.649 11.9759C151.748 11.9759 152.706 12.2161 153.523 12.6967C154.34 13.1773 154.975 13.8639 155.428 14.7564C155.881 15.642 156.108 16.6993 156.108 17.9283V28H151.72V18.7109C151.727 17.7429 151.48 16.9877 150.979 16.4453C150.478 15.8961 149.788 15.6214 148.909 15.6214C148.319 15.6214 147.797 15.7485 147.344 16.0025C146.897 16.2565 146.547 16.6272 146.293 17.1147C146.046 17.5953 145.919 18.1754 145.912 18.8551ZM166.692 34.2614C165.27 34.2614 164.052 34.0657 163.036 33.6744C162.026 33.2899 161.223 32.7647 160.626 32.0987C160.029 31.4328 159.641 30.6844 159.462 29.8537L163.52 29.3079C163.643 29.6237 163.839 29.9189 164.107 30.1935C164.374 30.4682 164.728 30.6879 165.167 30.8526C165.614 31.0243 166.156 31.1101 166.795 31.1101C167.749 31.1101 168.535 30.8767 169.153 30.4098C169.778 29.9498 170.09 29.1774 170.09 28.0927V25.1989H169.905C169.712 25.6383 169.424 26.0536 169.04 26.445C168.655 26.8363 168.161 27.1555 167.557 27.4027C166.952 27.6499 166.232 27.7734 165.394 27.7734C164.206 27.7734 163.125 27.4988 162.15 26.9496C161.182 26.3935 160.41 25.5456 159.833 24.4059C159.263 23.2594 158.978 21.8107 158.978 20.06C158.978 18.2681 159.27 16.7714 159.854 15.57C160.437 14.3685 161.213 13.4691 162.181 12.8718C163.156 12.2745 164.223 11.9759 165.384 11.9759C166.269 11.9759 167.011 12.1269 167.608 12.429C168.205 12.7242 168.686 13.0949 169.05 13.5412C169.421 13.9806 169.706 14.4131 169.905 14.8388H170.069V12.1818H174.426V28.1545C174.426 29.5001 174.096 30.6261 173.437 31.5323C172.778 32.4386 171.865 33.1183 170.698 33.5714C169.537 34.0314 168.202 34.2614 166.692 34.2614ZM166.784 24.478C167.491 24.478 168.089 24.3029 168.576 23.9528C169.07 23.5958 169.448 23.0877 169.709 22.4286C169.977 21.7627 170.111 20.9663 170.111 20.0394C170.111 19.1126 169.98 18.3093 169.719 17.6296C169.458 16.9431 169.081 16.411 168.586 16.0334C168.092 15.6558 167.491 15.467 166.784 15.467C166.063 15.467 165.456 15.6626 164.961 16.054C164.467 16.4384 164.093 16.974 163.839 17.6605C163.585 18.3471 163.458 19.14 163.458 20.0394C163.458 20.9525 163.585 21.7421 163.839 22.408C164.1 23.0671 164.474 23.5786 164.961 23.9425C165.456 24.2995 166.063 24.478 166.784 24.478ZM181.892 23.4482L181.902 18.1857H182.541L187.607 12.1818H192.643L185.836 20.1321H184.796L181.892 23.4482ZM177.917 28V6.90909H182.304V28H177.917ZM187.803 28L183.148 21.1104L186.073 18.0107L192.942 28H187.803ZM194.796 28V12.1818H199.183V28H194.796ZM196.999 10.1428C196.347 10.1428 195.788 9.92649 195.321 9.49396C194.861 9.05457 194.631 8.52936 194.631 7.91832C194.631 7.31416 194.861 6.79581 195.321 6.36328C195.788 5.92389 196.347 5.70419 196.999 5.70419C197.652 5.70419 198.208 5.92389 198.668 6.36328C199.135 6.79581 199.368 7.31416 199.368 7.91832C199.368 8.52936 199.135 9.05457 198.668 9.49396C198.208 9.92649 197.652 10.1428 196.999 10.1428ZM207.084 18.8551V28H202.697V12.1818H206.878V14.9727H207.063C207.414 14.0527 208.001 13.3249 208.824 12.7894C209.648 12.247 210.647 11.9759 211.821 11.9759C212.92 11.9759 213.878 12.2161 214.695 12.6967C215.512 13.1773 216.147 13.8639 216.6 14.7564C217.053 15.642 217.279 16.6993 217.279 17.9283V28H212.892V18.7109C212.899 17.7429 212.652 16.9877 212.151 16.4453C211.65 15.8961 210.96 15.6214 210.081 15.6214C209.49 15.6214 208.969 15.7485 208.516 16.0025C208.069 16.2565 207.719 16.6272 207.465 17.1147C207.218 17.5953 207.091 18.1754 207.084 18.8551ZM102.778 63.2575C101.576 63.2575 100.488 62.9485 99.5132 62.3306C98.5452 61.7058 97.7762 60.7893 97.2064 59.581C96.6434 58.3658 96.3619 56.8759 96.3619 55.1115C96.3619 53.299 96.6537 51.792 97.2373 50.5906C97.8209 49.3822 98.5967 48.4794 99.5647 47.8821C100.54 47.2779 101.607 46.9759 102.767 46.9759C103.653 46.9759 104.391 47.1269 104.982 47.429C105.579 47.7242 106.06 48.0949 106.423 48.5412C106.794 48.9806 107.076 49.4131 107.268 49.8388H107.402V41.9091H111.778V63H107.453V60.4666H107.268C107.062 60.906 106.77 61.342 106.392 61.7745C106.022 62.2002 105.538 62.5537 104.94 62.8352C104.35 63.1167 103.629 63.2575 102.778 63.2575ZM104.168 59.7663C104.875 59.7663 105.473 59.5741 105.96 59.1896C106.454 58.7983 106.832 58.2525 107.093 57.5522C107.361 56.8519 107.494 56.0315 107.494 55.0909C107.494 54.1503 107.364 53.3333 107.103 52.6399C106.842 51.9465 106.465 51.411 105.97 51.0334C105.476 50.6558 104.875 50.467 104.168 50.467C103.447 50.467 102.84 50.6626 102.345 51.054C101.851 51.4453 101.477 51.9877 101.223 52.6811C100.969 53.3745 100.842 54.1778 100.842 55.0909C100.842 56.0109 100.969 56.8245 101.223 57.5316C101.484 58.2319 101.858 58.7811 102.345 59.1793C102.84 59.5707 103.447 59.7663 104.168 59.7663ZM115.385 63V47.1818H119.773V63H115.385ZM117.589 45.1428C116.937 45.1428 116.378 44.9265 115.911 44.494C115.451 44.0546 115.221 43.5294 115.221 42.9183C115.221 42.3142 115.451 41.7958 115.911 41.3633C116.378 40.9239 116.937 40.7042 117.589 40.7042C118.242 40.7042 118.798 40.9239 119.258 41.3633C119.724 41.7958 119.958 42.3142 119.958 42.9183C119.958 43.5294 119.724 44.0546 119.258 44.494C118.798 44.9265 118.242 45.1428 117.589 45.1428ZM127.797 63.2987C126.788 63.2987 125.889 63.1236 125.099 62.7734C124.31 62.4164 123.685 61.8912 123.225 61.1978C122.772 60.4975 122.545 59.6256 122.545 58.582C122.545 57.7032 122.707 56.9652 123.029 56.3679C123.352 55.7706 123.791 55.29 124.348 54.9261C124.904 54.5623 125.535 54.2876 126.242 54.1023C126.956 53.9169 127.705 53.7865 128.487 53.7109C129.407 53.6148 130.149 53.5256 130.712 53.4432C131.275 53.3539 131.683 53.2235 131.937 53.0518C132.191 52.8802 132.318 52.6262 132.318 52.2898V52.228C132.318 51.5758 132.112 51.0711 131.701 50.7141C131.295 50.3571 130.719 50.1786 129.97 50.1786C129.181 50.1786 128.553 50.3537 128.086 50.7038C127.619 51.0471 127.31 51.4796 127.159 52.0014L123.101 51.6719C123.307 50.7107 123.713 49.88 124.317 49.1797C124.921 48.4725 125.7 47.9302 126.654 47.5526C127.616 47.1681 128.728 46.9759 129.991 46.9759C130.87 46.9759 131.711 47.0788 132.514 47.2848C133.324 47.4908 134.042 47.81 134.666 48.2425C135.298 48.6751 135.796 49.2312 136.16 49.9109C136.524 50.5837 136.706 51.3904 136.706 52.331V63H132.545V60.8065H132.421C132.167 61.3008 131.828 61.7367 131.402 62.1143C130.976 62.4851 130.465 62.7769 129.867 62.9897C129.27 63.1957 128.58 63.2987 127.797 63.2987ZM129.054 60.271C129.699 60.271 130.269 60.1439 130.763 59.8899C131.258 59.629 131.646 59.2789 131.927 58.8395C132.209 58.4001 132.349 57.9023 132.349 57.3462V55.6676C132.212 55.7569 132.023 55.8393 131.783 55.9148C131.55 55.9834 131.285 56.0487 130.99 56.1104C130.695 56.1654 130.4 56.2169 130.104 56.2649C129.809 56.3061 129.541 56.3439 129.301 56.3782C128.786 56.4537 128.336 56.5739 127.952 56.7386C127.568 56.9034 127.269 57.1265 127.056 57.408C126.843 57.6826 126.737 58.0259 126.737 58.4379C126.737 59.0352 126.953 59.4917 127.386 59.8075C127.825 60.1165 128.381 60.271 129.054 60.271ZM144.496 41.9091V63H140.109V41.9091H144.496ZM155.219 63.3089C153.592 63.3089 152.192 62.9794 151.018 62.3203C149.85 61.6544 148.951 60.7138 148.319 59.4986C147.688 58.2765 147.372 56.8313 147.372 55.163C147.372 53.5359 147.688 52.1078 148.319 50.8789C148.951 49.65 149.84 48.6922 150.987 48.0057C152.14 47.3191 153.493 46.9759 155.044 46.9759C156.088 46.9759 157.059 47.1441 157.959 47.4805C158.865 47.81 159.654 48.3078 160.327 48.9737C161.007 49.6397 161.536 50.4773 161.913 51.4865C162.291 52.4889 162.48 53.6629 162.48 55.0085V56.2134H149.123V53.4947H158.35C158.35 52.863 158.213 52.3035 157.938 51.8161C157.663 51.3286 157.282 50.9476 156.795 50.6729C156.314 50.3915 155.755 50.2507 155.116 50.2507C154.45 50.2507 153.86 50.4052 153.345 50.7141C152.837 51.0162 152.439 51.4247 152.15 51.9396C151.862 52.4477 151.714 53.0141 151.708 53.6388V56.2237C151.708 57.0064 151.852 57.6826 152.14 58.2525C152.435 58.8223 152.851 59.2617 153.386 59.5707C153.922 59.8796 154.557 60.0341 155.291 60.0341C155.779 60.0341 156.225 59.9654 156.63 59.8281C157.035 59.6908 157.382 59.4848 157.67 59.2102C157.959 58.9356 158.178 58.5992 158.329 58.201L162.387 58.4688C162.181 59.4437 161.759 60.295 161.12 61.0227C160.489 61.7436 159.672 62.3066 158.669 62.7116C157.674 63.1098 156.524 63.3089 155.219 63.3089ZM169.73 41.9091V63H165.343V41.9091H169.73ZM177.755 63.2987C176.745 63.2987 175.846 63.1236 175.056 62.7734C174.267 62.4164 173.642 61.8912 173.182 61.1978C172.729 60.4975 172.502 59.6256 172.502 58.582C172.502 57.7032 172.664 56.9652 172.986 56.3679C173.309 55.7706 173.748 55.29 174.305 54.9261C174.861 54.5623 175.492 54.2876 176.199 54.1023C176.914 53.9169 177.662 53.7865 178.445 53.7109C179.364 53.6148 180.106 53.5256 180.669 53.4432C181.232 53.3539 181.64 53.2235 181.894 53.0518C182.148 52.8802 182.275 52.6262 182.275 52.2898V52.228C182.275 51.5758 182.07 51.0711 181.658 50.7141C181.253 50.3571 180.676 50.1786 179.927 50.1786C179.138 50.1786 178.51 50.3537 178.043 50.7038C177.576 51.0471 177.267 51.4796 177.116 52.0014L173.059 51.6719C173.264 50.7107 173.67 49.88 174.274 49.1797C174.878 48.4725 175.657 47.9302 176.611 47.5526C177.573 47.1681 178.685 46.9759 179.948 46.9759C180.827 46.9759 181.668 47.0788 182.471 47.2848C183.281 47.4908 183.999 47.81 184.623 48.2425C185.255 48.6751 185.753 49.2312 186.117 49.9109C186.481 50.5837 186.663 51.3904 186.663 52.331V63H182.502V60.8065H182.378C182.124 61.3008 181.785 61.7367 181.359 62.1143C180.933 62.4851 180.422 62.7769 179.824 62.9897C179.227 63.1957 178.537 63.2987 177.755 63.2987ZM179.011 60.271C179.656 60.271 180.226 60.1439 180.72 59.8899C181.215 59.629 181.603 59.2789 181.884 58.8395C182.166 58.4001 182.306 57.9023 182.306 57.3462V55.6676C182.169 55.7569 181.98 55.8393 181.74 55.9148C181.507 55.9834 181.242 56.0487 180.947 56.1104C180.652 56.1654 180.357 56.2169 180.061 56.2649C179.766 56.3061 179.498 56.3439 179.258 56.3782C178.743 56.4537 178.293 56.5739 177.909 56.7386C177.525 56.9034 177.226 57.1265 177.013 57.408C176.8 57.6826 176.694 58.0259 176.694 58.4379C176.694 59.0352 176.91 59.4917 177.343 59.8075C177.782 60.1165 178.338 60.271 179.011 60.271ZM194.453 53.8551V63H190.066V41.9091H194.33V49.9727H194.515C194.872 49.0389 195.449 48.3078 196.245 47.7791C197.042 47.2436 198.04 46.9759 199.242 46.9759C200.34 46.9759 201.298 47.2161 202.115 47.6967C202.939 48.1705 203.578 48.8536 204.031 49.7461C204.491 50.6317 204.717 51.6925 204.71 52.9283V63H200.323V53.7109C200.33 52.736 200.083 51.9774 199.582 51.435C199.087 50.8926 198.394 50.6214 197.502 50.6214C196.904 50.6214 196.376 50.7485 195.916 51.0025C195.462 51.2565 195.105 51.6272 194.845 52.1147C194.591 52.5953 194.46 53.1754 194.453 53.8551Z" fill="#2B4865"/>
</svg>
