<svg width="261" height="106" viewBox="0 0 261 106" fill="none" xmlns="http://www.w3.org/2000/svg">
<path fill-rule="evenodd" clip-rule="evenodd" d="M23.4343 20.2388C30.1397 13.5334 39.234 9.7664 48.7168 9.76636C58.1996 9.7664 67.294 13.5334 73.9993 20.2388C80.7046 26.9441 84.4717 36.0385 84.4717 45.5213C84.4717 55.004 80.7046 64.0984 73.9993 70.8037C67.294 77.5091 58.1996 81.2761 48.7168 81.2761C43.0769 81.2761 37.5171 79.9419 32.4914 77.3825C27.048 82.5092 20.8113 88.5516 13.1544 96.2336V49.1833C13.0277 47.9667 12.9634 46.7444 12.9619 45.5213C12.962 36.0385 16.729 26.9441 23.4343 20.2388ZM65.2174 45.3565C65.2174 54.0925 58.1355 61.1744 49.3995 61.1744C40.6636 61.1744 33.5817 54.0925 33.5817 45.3565C33.5817 36.6206 40.6636 29.5387 49.3995 29.5387C58.1355 29.5387 65.2174 36.6206 65.2174 45.3565Z" fill="#2B4865"/>
<path d="M95.4261 49.26C96.1461 48.156 97.0461 47.292 98.1261 46.668C99.2061 46.02 100.406 45.696 101.726 45.696V52.212H100.034C98.4981 52.212 97.3461 52.548 96.5781 53.22C95.8101 53.868 95.4261 55.02 95.4261 56.676V66H89.2701V45.912H95.4261V49.26ZM113.813 66.288C111.845 66.288 110.069 65.868 108.485 65.028C106.925 64.188 105.689 62.988 104.777 61.428C103.889 59.868 103.445 58.044 103.445 55.956C103.445 53.892 103.901 52.08 104.813 50.52C105.725 48.936 106.973 47.724 108.557 46.884C110.141 46.044 111.917 45.624 113.885 45.624C115.853 45.624 117.629 46.044 119.213 46.884C120.797 47.724 122.045 48.936 122.957 50.52C123.869 52.08 124.325 53.892 124.325 55.956C124.325 58.02 123.857 59.844 122.921 61.428C122.009 62.988 120.749 64.188 119.141 65.028C117.557 65.868 115.781 66.288 113.813 66.288ZM113.813 60.96C114.989 60.96 115.985 60.528 116.801 59.664C117.641 58.8 118.061 57.564 118.061 55.956C118.061 54.348 117.653 53.112 116.837 52.248C116.045 51.384 115.061 50.952 113.885 50.952C112.685 50.952 111.689 51.384 110.897 52.248C110.105 53.088 109.709 54.324 109.709 55.956C109.709 57.564 110.093 58.8 110.861 59.664C111.653 60.528 112.637 60.96 113.813 60.96ZM135.222 45.624C136.638 45.624 137.874 45.912 138.93 46.488C140.01 47.064 140.838 47.82 141.414 48.756V45.912H147.57V65.964C147.57 67.812 147.198 69.48 146.454 70.968C145.734 72.48 144.618 73.68 143.106 74.568C141.618 75.456 139.758 75.9 137.526 75.9C134.55 75.9 132.138 75.192 130.29 73.776C128.442 72.384 127.386 70.488 127.122 68.088H133.206C133.398 68.856 133.854 69.456 134.574 69.888C135.294 70.344 136.182 70.572 137.238 70.572C138.51 70.572 139.518 70.2 140.262 69.456C141.03 68.736 141.414 67.572 141.414 65.964V63.12C140.814 64.056 139.986 64.824 138.93 65.424C137.874 66 136.638 66.288 135.222 66.288C133.566 66.288 132.066 65.868 130.722 65.028C129.378 64.164 128.31 62.952 127.518 61.392C126.75 59.808 126.366 57.984 126.366 55.92C126.366 53.856 126.75 52.044 127.518 50.484C128.31 48.924 129.378 47.724 130.722 46.884C132.066 46.044 133.566 45.624 135.222 45.624ZM141.414 55.956C141.414 54.42 140.982 53.208 140.118 52.32C139.278 51.432 138.246 50.988 137.022 50.988C135.798 50.988 134.754 51.432 133.89 52.32C133.05 53.184 132.63 54.384 132.63 55.92C132.63 57.456 133.05 58.68 133.89 59.592C134.754 60.48 135.798 60.924 137.022 60.924C138.246 60.924 139.278 60.48 140.118 59.592C140.982 58.704 141.414 57.492 141.414 55.956ZM164.264 45.696C166.616 45.696 168.488 46.464 169.88 48C171.296 49.512 172.004 51.6 172.004 54.264V66H165.884V55.092C165.884 53.748 165.536 52.704 164.84 51.96C164.144 51.216 163.208 50.844 162.032 50.844C160.856 50.844 159.92 51.216 159.224 51.96C158.528 52.704 158.18 53.748 158.18 55.092V66H152.024V45.912H158.18V48.576C158.804 47.688 159.644 46.992 160.7 46.488C161.756 45.96 162.944 45.696 164.264 45.696ZM185.426 66.288C183.458 66.288 181.682 65.868 180.098 65.028C178.538 64.188 177.302 62.988 176.39 61.428C175.502 59.868 175.058 58.044 175.058 55.956C175.058 53.892 175.514 52.08 176.426 50.52C177.338 48.936 178.586 47.724 180.17 46.884C181.754 46.044 183.53 45.624 185.498 45.624C187.466 45.624 189.242 46.044 190.826 46.884C192.41 47.724 193.658 48.936 194.57 50.52C195.482 52.08 195.938 53.892 195.938 55.956C195.938 58.02 195.47 59.844 194.534 61.428C193.622 62.988 192.362 64.188 190.754 65.028C189.17 65.868 187.394 66.288 185.426 66.288ZM185.426 60.96C186.602 60.96 187.598 60.528 188.414 59.664C189.254 58.8 189.674 57.564 189.674 55.956C189.674 54.348 189.266 53.112 188.45 52.248C187.658 51.384 186.674 50.952 185.498 50.952C184.298 50.952 183.302 51.384 182.51 52.248C181.718 53.088 181.322 54.324 181.322 55.956C181.322 57.564 181.706 58.8 182.474 59.664C183.266 60.528 184.25 60.96 185.426 60.96ZM207.376 66.288C205.624 66.288 204.064 65.988 202.696 65.388C201.328 64.788 200.248 63.972 199.456 62.94C198.664 61.884 198.22 60.708 198.124 59.412H204.208C204.28 60.108 204.604 60.672 205.18 61.104C205.756 61.536 206.464 61.752 207.304 61.752C208.072 61.752 208.66 61.608 209.068 61.32C209.5 61.008 209.716 60.612 209.716 60.132C209.716 59.556 209.416 59.136 208.816 58.872C208.216 58.584 207.244 58.272 205.9 57.936C204.46 57.6 203.26 57.252 202.3 56.892C201.34 56.508 200.512 55.92 199.816 55.128C199.12 54.312 198.772 53.22 198.772 51.852C198.772 50.7 199.084 49.656 199.708 48.72C200.356 47.76 201.292 47.004 202.516 46.452C203.764 45.9 205.24 45.624 206.944 45.624C209.464 45.624 211.444 46.248 212.884 47.496C214.348 48.744 215.188 50.4 215.404 52.464H209.716C209.62 51.768 209.308 51.216 208.78 50.808C208.276 50.4 207.604 50.196 206.764 50.196C206.044 50.196 205.492 50.34 205.108 50.628C204.724 50.892 204.532 51.264 204.532 51.744C204.532 52.32 204.832 52.752 205.432 53.04C206.056 53.328 207.016 53.616 208.312 53.904C209.8 54.288 211.012 54.672 211.948 55.056C212.884 55.416 213.7 56.016 214.396 56.856C215.116 57.672 215.488 58.776 215.512 60.168C215.512 61.344 215.176 62.4 214.504 63.336C213.856 64.248 212.908 64.968 211.66 65.496C210.436 66.024 209.008 66.288 207.376 66.288ZM222.374 43.824C221.294 43.824 220.406 43.512 219.71 42.888C219.038 42.24 218.702 41.448 218.702 40.512C218.702 39.552 219.038 38.76 219.71 38.136C220.406 37.488 221.294 37.164 222.374 37.164C223.43 37.164 224.294 37.488 224.966 38.136C225.662 38.76 226.01 39.552 226.01 40.512C226.01 41.448 225.662 42.24 224.966 42.888C224.294 43.512 223.43 43.824 222.374 43.824ZM225.434 45.912V66H219.278V45.912H225.434ZM238.067 66.288C236.315 66.288 234.755 65.988 233.387 65.388C232.019 64.788 230.939 63.972 230.147 62.94C229.355 61.884 228.911 60.708 228.815 59.412H234.899C234.971 60.108 235.295 60.672 235.871 61.104C236.447 61.536 237.155 61.752 237.995 61.752C238.763 61.752 239.351 61.608 239.759 61.32C240.191 61.008 240.407 60.612 240.407 60.132C240.407 59.556 240.107 59.136 239.507 58.872C238.907 58.584 237.935 58.272 236.591 57.936C235.151 57.6 233.951 57.252 232.991 56.892C232.031 56.508 231.203 55.92 230.507 55.128C229.811 54.312 229.463 53.22 229.463 51.852C229.463 50.7 229.775 49.656 230.399 48.72C231.047 47.76 231.983 47.004 233.207 46.452C234.455 45.9 235.931 45.624 237.635 45.624C240.155 45.624 242.135 46.248 243.575 47.496C245.039 48.744 245.879 50.4 246.095 52.464H240.407C240.311 51.768 239.999 51.216 239.471 50.808C238.967 50.4 238.295 50.196 237.455 50.196C236.735 50.196 236.183 50.34 235.799 50.628C235.415 50.892 235.223 51.264 235.223 51.744C235.223 52.32 235.523 52.752 236.123 53.04C236.747 53.328 237.707 53.616 239.003 53.904C240.491 54.288 241.703 54.672 242.639 55.056C243.575 55.416 244.391 56.016 245.087 56.856C245.807 57.672 246.179 58.776 246.203 60.168C246.203 61.344 245.867 62.4 245.195 63.336C244.547 64.248 243.599 64.968 242.351 65.496C241.127 66.024 239.699 66.288 238.067 66.288Z" fill="#2B4865"/>
</svg>
