<svg width="70" height="70" viewBox="0 0 70 70" fill="none" xmlns="http://www.w3.org/2000/svg">
<circle cx="35" cy="35" r="35" fill="#FEFBF6"/>
<path d="M56.9563 34.6457L36.1432 13.8477C35.9933 13.6975 35.8153 13.5784 35.6194 13.4971C35.4234 13.4159 35.2134 13.374 35.0012 13.374C34.7891 13.374 34.579 13.4159 34.3831 13.4971C34.1871 13.5784 34.0091 13.6975 33.8593 13.8477L13.0461 34.6457C12.4398 35.252 12.0962 36.0757 12.0962 36.9347C12.0962 38.7183 13.5464 40.1685 15.3301 40.1685H17.5231V55.0091C17.5231 55.9035 18.2456 56.626 19.14 56.626H31.7673V45.3074H37.4267V56.626H50.8625C51.7568 56.626 52.4794 55.9035 52.4794 55.0091V40.1685H54.6724C55.5314 40.1685 56.355 39.83 56.9614 39.2186C58.2196 37.9554 58.2196 35.9089 56.9563 34.6457V34.6457Z" fill="black"/>
</svg>
